<?xml version="1.0" encoding="UTF-8" standalone="no"?>
<svg
   xmlns:dc="http://purl.org/dc/elements/1.1/"
   xmlns:cc="http://creativecommons.org/ns#"
   xmlns:rdf="http://www.w3.org/1999/02/22-rdf-syntax-ns#"
   xmlns:svg="http://www.w3.org/2000/svg"
   xmlns="http://www.w3.org/2000/svg"
   xmlns:sodipodi="http://sodipodi.sourceforge.net/DTD/sodipodi-0.dtd"
   xmlns:inkscape="http://www.inkscape.org/namespaces/inkscape"
   id="logo"
   height="12.191976"
   width="46.031376"
   viewbox="0 0 100 100"
   version="1.1"
   sodipodi:docname="logo.svg"
   inkscape:version="1.0.1 (3bc2e813f5, 2020-09-07)">
  <metadata
     id="metadata896">
    <rdf:RDF>
      <cc:Work
         rdf:about="">
        <dc:format>image/svg+xml</dc:format>
        <dc:type
           rdf:resource="http://purl.org/dc/dcmitype/StillImage" />
      </cc:Work>
    </rdf:RDF>
  </metadata>
  <defs
     id="defs894" />
  <sodipodi:namedview
     pagecolor="#ffffff"
     bordercolor="#666666"
     borderopacity="1"
     objecttolerance="10"
     gridtolerance="10"
     guidetolerance="10"
     inkscape:pageopacity="0"
     inkscape:pageshadow="2"
     inkscape:window-width="2560"
     inkscape:window-height="1377"
     id="namedview892"
     showgrid="false"
     inkscape:zoom="3.6933333"
     inkscape:cx="150"
     inkscape:cy="75.135542"
     inkscape:window-x="-8"
     inkscape:window-y="-8"
     inkscape:window-maximized="1"
     inkscape:current-layer="logo" />
  <g
     id="g889"
     transform="translate(0,0.135542)">
    <g
       style="fill:#bc5d2e"
       transform="translate(-82.572356,-71.267661)"
       id="g872">
      <path
         d="m 105.01569,71.301452 h 4.92759 v 1.69333 h -3.06493 v 3.301994 h 2.40453 v 1.69333 h -2.40453 v 5.164656 h -1.86266 z"
         id="path864" />
      <path
         d="m 111.73818,71.301452 h 2.52307 l 1.93039,11.85331 h -1.86266 l -0.33867,-2.353728 v 0.03387 h -2.11666 l -0.33867,2.319862 h -1.72719 z m 2.032,7.924785 -0.82973,-5.858922 h -0.0339 l -0.8128,5.858922 z"
         id="path866" />
      <path
         d="m 119.45975,83.324095 q -1.35467,0 -2.04893,-0.761998 -0.69427,-0.778932 -0.69427,-2.218263 v -0.677332 h 1.76107 v 0.812799 q 0,1.151464 0.9652,1.151464 0.47413,0 0.71119,-0.270933 0.254,-0.287866 0.254,-0.914398 0,-0.745065 -0.33866,-1.303864 -0.33867,-0.575732 -1.25307,-1.371597 -1.15146,-1.015998 -1.60866,-1.828797 -0.4572,-0.829731 -0.4572,-1.862663 0,-1.405463 0.7112,-2.167462 0.7112,-0.778932 2.06586,-0.778932 1.33773,0 2.01506,0.778932 0.69427,0.761999 0.69427,2.201329 v 0.491066 h -1.76106 v -0.609599 q 0,-0.609599 -0.23707,-0.880532 -0.23707,-0.287866 -0.69426,-0.287866 -0.93134,0 -0.93134,1.134531 0,0.643466 0.33867,1.202265 0.3556,0.558799 1.27,1.354664 1.1684,1.015998 1.60866,1.845729 0.44027,0.829732 0.44027,1.94733 0,1.456264 -0.72814,2.235195 -0.71119,0.778932 -2.08279,0.778932 z"
         id="path868" />
      <path
         d="m 124.79373,72.994782 h -1.94732 v -1.69333 h 5.75732 v 1.69333 h -1.94733 v 10.15998 h -1.86267 z"
         id="path870" />
    </g>
    <g
       transform="matrix(0.99330478,0,0,1.0067403,-82.572356,-71.267661)"
       style="fill:#de9151"
       id="g884">
      <path
         d="m 86.742024,77.376161 q 0,-0.390109 -0.323379,-0.677557 -0.318247,-0.292581 -1.154927,-0.47737 -0.985537,-0.20532 -1.46804,-0.559498 -0.47737,-0.35931 -0.47737,-1.000936 0,-0.636493 0.533833,-1.077932 0.538966,-0.441438 1.421843,-0.441438 0.929075,0 1.483439,0.472236 0.554365,0.467104 0.5287,1.154927 l -0.01027,0.0308 h -0.569764 q 0,-0.456837 -0.395241,-0.795616 -0.390109,-0.338779 -1.036868,-0.338779 -0.667291,0 -1.006069,0.292582 -0.338779,0.292581 -0.338779,0.68269 0,0.379843 0.287449,0.63136 0.292581,0.246384 1.160059,0.436306 0.975272,0.215586 1.473174,0.600561 0.503034,0.384976 0.503034,1.036868 0,0.692956 -0.564631,1.129262 -0.559497,0.431172 -1.483439,0.431172 -1.011202,0 -1.591232,-0.482502 -0.574897,-0.482503 -0.544099,-1.149794 l 0.01027,-0.0308 h 0.564631 q 0.03593,0.600562 0.487636,0.872611 0.456837,0.27205 1.072798,0.27205 0.667291,0 1.052267,-0.297715 0.384975,-0.297714 0.384975,-0.713488 z"
         id="path874" />
      <path
         d="m 89.729435,71.822247 v 1.421843 h 1.221656 v 0.503035 h -1.221656 v 3.61877 q 0,0.544099 0.195054,0.775084 0.200187,0.225853 0.5287,0.225853 0.112926,0 0.215586,-0.01027 0.107793,-0.0154 0.251518,-0.0462 l 0.09239,0.456838 q -0.123193,0.0616 -0.307981,0.09753 -0.179655,0.04106 -0.35931,0.04106 -0.585163,0 -0.913676,-0.369576 -0.323379,-0.369577 -0.323379,-1.170326 v -3.61877 H 88.148468 V 73.24409 h 0.959873 v -1.421843 z"
         id="path876" />
      <path
         d="M 92.840037,78.798004 H 92.229209 V 73.24409 h 0.610828 z m 0,-7.145147 h -0.610828 v -0.862345 h 0.610828 z"
         id="path878" />
      <path
         d="m 96.648729,78.905797 q -1.077932,0 -1.750356,-0.759685 -0.672424,-0.764818 -0.672424,-1.960809 v -0.282315 q 0,-1.201124 0.677557,-1.981341 0.68269,-0.780217 1.68876,-0.780217 1.011202,0 1.560434,0.651892 0.554365,0.646759 0.554365,1.745222 v 0.47737 H 94.84191 v 0.169389 q 0,0.949607 0.47737,1.575834 0.482502,0.626227 1.329449,0.626227 0.508167,0 0.934207,-0.164257 0.42604,-0.169389 0.708355,-0.451704 l 0.261784,0.420906 q -0.292582,0.307981 -0.769952,0.513301 -0.472236,0.200187 -1.134394,0.200187 z m -0.05646,-5.240801 q -0.708355,0 -1.165193,0.508168 -0.456838,0.508168 -0.533833,1.288385 l 0.0154,0.0308 h 3.182465 v -0.128325 q 0,-0.739153 -0.390109,-1.216523 -0.384975,-0.482503 -1.108729,-0.482503 z"
         id="path880" />
      <path
         d="m 99.708001,76.067244 q 0,-1.329449 0.559499,-2.125065 0.56463,-0.800749 1.5707,-0.800749 0.56976,0 0.9958,0.241251 0.43118,0.241251 0.71349,0.68269 v -3.274859 h 0.61596 v 8.007492 h -0.50303 l -0.0873,-0.805882 q -0.28232,0.441439 -0.71863,0.677557 -0.4363,0.236118 -1.0266,0.236118 -0.9958,0 -1.56043,-0.739153 -0.559499,-0.744286 -0.559499,-1.991607 z m 0.615959,0.107793 q 0,1.00607 0.40038,1.601499 0.4055,0.595429 1.21652,0.595429 0.59543,0 0.99067,-0.261784 0.39524,-0.266916 0.61596,-0.73402 v -2.633233 q -0.21045,-0.472237 -0.59543,-0.769951 -0.38497,-0.297714 -1.00093,-0.297714 -0.81102,0 -1.22166,0.667291 -0.40551,0.662157 -0.40551,1.72469 z"
         id="path882" />
    </g>
    <path
       style="fill:none;stroke:#bbb8b2;stroke-width:0.269367px;stroke-linecap:butt;stroke-linejoin:miter"
       d="M 0,9.3141027 H 21.46935"
       id="path843" />
    <path
       style="fill:none;stroke:#bbb8b2;stroke-width:0.268478px;stroke-linecap:butt;stroke-linejoin:miter"
       d="M 0,10.469693 H 21.3276"
       id="path843-0" />
    <path
       style="fill:none;stroke:#bbb8b2;stroke-width:0.268478px;stroke-linecap:butt;stroke-linejoin:miter"
       d="M 0,11.556373 H 21.3276"
       id="path843-1" />
  </g>
</svg>
