<?xml version="1.0" encoding="UTF-8"?>
<svg xmlns="http://www.w3.org/2000/svg" id="Layer_1" viewBox="0 0 230.6 39.66">
  <defs>
    <style>.cls-1{fill:#fff;}</style>
  </defs>
  <title>AW_logo_horizontal</title>
  <g id="AlanWake-Secondary-White">
    <path class="cls-1" d="M154.56,0.24L150,39.68H137.2q-1.73-9.09-3.1-20.69-0.63,5-2.87,20.69H118.51L113.92,0.24h10L125,14l1,13.3Q126.58,17,128.85.24h10.64q0.19,1.73,1.1,13l1.15,15q0.89-14.33,2.85-28h10Z" transform="translate(-0.92 -0.01)"/>
    <path class="cls-1" d="M168.77,25.6Q168,18.9,167.23,9q-1.53,11.34-1.94,16.58h3.49ZM174.2,0.24l5.89,39.44H169.61l-0.55-7.08h-3.68l-0.59,7.08H154.16l5.22-39.44H174.2Z" transform="translate(-0.92 -0.01)"/>
    <polygon class="cls-1" points="206.02 0.22 200.14 18.03 206.58 39.66 195.99 39.66 191.82 22.75 191.82 39.66 181.57 39.66 181.57 0.22 191.82 0.22 191.82 15.54 196.42 0.22 206.02 0.22"/>
    <polygon class="cls-1" points="208.99 0.22 226.1 0.22 226.1 8.11 219.24 8.11 219.24 15.59 225.65 15.59 225.65 23.09 219.24 23.09 219.24 31.77 226.77 31.77 226.77 39.66 208.99 39.66 208.99 0.22"/>
    <path class="cls-1" d="M12.89,10.67L10.22,25.89h5ZM17.5,39.46L16.2,31.7h-7L7.79,39.46H0.92L8.86,0h8.23L25,39.46H17.5Z" transform="translate(-0.92 -0.01)"/>
    <polygon class="cls-1" points="27.24 39.44 27.24 0 34.59 0 34.59 32.93 45.6 32.93 45.6 39.44 27.24 39.44"/>
    <path class="cls-1" d="M60.85,10.67L58.19,25.89h5Zm4.62,28.78-1.3-7.76h-7l-1.42,7.76H48.89L56.83,0h8.23l7.87,39.44H65.47Z" transform="translate(-0.92 -0.01)"/>
    <polygon class="cls-1" points="92.32 39.44 84.69 22.62 81.9 16.35 81.9 39.44 75.15 39.44 75.15 0 81.49 0 88.77 17.11 91.38 23.39 91.38 0 98.01 0 98.01 39.44 92.32 39.44"/>
    <g id="Registered_Symbol">
      <path class="cls-1" d="M231.52,1.79a1.6,1.6,0,1,1-1.6-1.6A1.6,1.6,0,0,1,231.52,1.79Zm-2.94,0A1.34,1.34,0,1,0,229.92.45,1.34,1.34,0,0,0,228.58,1.78Zm0.74-.89h0.62a0.5,0.5,0,0,1,.63.47,0.41,0.41,0,0,1-.34.44c0.25,0,.26.18,0.3,0.41a1.81,1.81,0,0,0,.09.47h-0.38c0-.08-0.07-0.54-0.07-0.57A0.16,0.16,0,0,0,230,2h-0.31V2.68h-0.35V0.89Zm0.34,0.79h0.28a0.24,0.24,0,0,0,.27-0.25,0.22,0.22,0,0,0-.26-0.25h-0.29v0.5Z" transform="translate(-0.92 -0.01)"/>
    </g>
  </g>
</svg>