<?xml version="1.0" encoding="UTF-8"?>
<svg xmlns="http://www.w3.org/2000/svg" id="Layer_1" viewBox="0 0 226.77 37.08">
  <defs>
    <style>.cls-1,.cls-2{fill:#ba2025;}.cls-2,.cls-3{fill-rule:evenodd;}.cls-3{fill:#fff;}</style>
  </defs>
  <title>MP2_logo</title>
  <path class="cls-1" d="M43.2,24.56L41.6,9.15H40.77L39.48,24.56H43.2ZM47.39,1.29l5.19,34.8L58.74,19,52,1.29h8.74L63.5,11.74,66.4,1.29h8.74L68.67,19l7,19.34H67L63.6,27.56,60.4,38.37H44.55l-0.72-6.83h-5l-0.72,6.83H29.81L35,1.29H47.39Z" transform="translate(-1.95 -1.29)"/>
  <path class="cls-1" d="M47.39,1.29l5.19,34.8L58.74,19,52,1.29h8.74L63.5,11.74,66.4,1.29h8.74L68.67,19l7,19.34H67L63.6,27.56,60.4,38.37H44.55l-0.72-6.83h-5l-0.72,6.83H29.81L35,1.29H47.39ZM43.2,24.56L41.6,9.15H40.77L39.48,24.56H43.2Z" transform="translate(-1.95 -1.29)"/>
  <polygon class="cls-2" points="26.63 0 16.6 0 13.81 17.95 13.03 17.95 10.03 0 0 0 0 37.08 7.81 37.08 7.81 13.55 8.17 13.55 11.74 37.08 14.89 37.08 18.46 13.55 18.82 13.55 18.82 37.08 26.63 37.08 26.63 0"/>
  <path class="cls-2" d="M100.94,8.27v10.5H97.79V8.27h3.15Zm8.17-1.6-5.74-5.38H89.26V38.37h8.53V25.75h5.59l5.74-5.22V6.67Z" transform="translate(-1.95 -1.29)"/>
  <path class="cls-2" d="M109.12,6.67V20.53l-5.74,5.22H97.79V38.37H89.26V1.29h14.12Zm-8.17,1.6H97.79v10.5h3.15V8.27Z" transform="translate(-1.95 -1.29)"/>
  <path class="cls-2" d="M122.45,24.56h-3.72L120,9.15h0.83Zm4.19-23.27H114.27l-5.22,37.08h8.33l0.72-6.83h5l0.72,6.83h8.38Z" transform="translate(-1.95 -1.29)"/>
  <path class="cls-2" d="M126.63,1.29l5.53,37.08h-8.38l-0.72-6.83h-5l-0.72,6.83h-8.33l5.22-37.08h12.36Zm-4.19,23.27-1.6-15.41H120l-1.29,15.41h3.72Z" transform="translate(-1.95 -1.29)"/>
  <polygon class="cls-2" points="150.51 0 141.98 0 138.93 13.39 138.83 13.39 135.77 0 127.24 0 134.59 21.57 134.59 37.08 143.12 37.08 143.12 21.57 150.51 0"/>
  <polygon class="cls-2" points="173.26 0 165.24 0 165.24 17.84 165.14 17.84 159.66 0 152.52 0 152.52 37.08 160.53 37.08 160.53 19.03 160.64 19.03 166.17 37.08 173.26 37.08 173.26 0"/>
  <polygon class="cls-2" points="191.63 0 175.91 0 175.91 37.08 191.84 37.08 191.84 30.1 184.44 30.1 184.44 20.95 190.5 20.95 190.5 13.96 184.44 13.96 184.44 6.98 191.63 6.98 191.63 0"/>
  <polygon class="cls-3" points="214.74 6.97 214.74 11.93 206.48 11.93 206.48 5.37 212.11 0 221.2 0 226.77 5.37 226.77 15.49 214.74 26.69 214.74 30.05 226.77 30.05 226.77 37.02 206.48 37.02 206.48 24.16 218.51 12.65 218.51 6.97 214.74 6.97"/>
</svg>