<?xml version="1.0" encoding="UTF-8"?>
<svg xmlns="http://www.w3.org/2000/svg" id="Layer_1" viewBox="0 0 440.09 80.95">
  <defs>
    <style>.cls-1,.cls-2{fill:#b00;}.cls-2{fill-rule:evenodd;}</style>
  </defs>
  <title>MP_logo</title>
  <path class="cls-1" d="M5.81-20.28l11.34,76L30.58,18.44,15.79-20.28H34.87L41,2.52l6.32-22.8H66.37L52.26,18.44,67.5,60.66H48.65L41.2,37.07l-7,23.6H-0.4L-2,45.76H-12.82l-1.58,14.9H-32.58l11.4-80.95h27Zm-9.14,50.8L-6.84-3.12H-8.64l-2.82,33.64h8.13Z" transform="translate(93.39 20.28)"/>
  <polygon class="cls-1" points="58.14 0 36.24 0 30.14 39.17 28.45 39.17 21.9 0 0 0 0 80.95 17.05 80.95 17.05 29.58 17.84 29.58 25.63 80.95 32.51 80.95 40.3 29.58 41.09 29.58 41.09 80.95 58.14 80.95 58.14 0 58.14 0"/>
  <path class="cls-2" d="M140.54-8.54L128-20.28H97.19V60.66h18.63V33.12H128l12.53-11.4V-8.54h0ZM122.71-5V17.88h-6.89V-5h6.89Z" transform="translate(93.39 20.28)"/>
  <path class="cls-2" d="M178.79-20.28h-27L140.4,60.66h18.18l1.58-14.9H171l1.58,14.9h18.29L178.79-20.28h0Zm-9.14,50.8h-8.13l2.82-33.64h1.81l3.5,33.64h0Z" transform="translate(93.39 20.28)"/>
  <polygon class="cls-1" points="328.56 0 309.94 0 303.27 29.24 303.05 29.24 296.39 0 277.76 0 293.79 47.08 293.79 80.95 312.42 80.95 312.42 47.08 328.56 0 328.56 0"/>
  <polygon class="cls-1" points="378.21 0 360.71 0 360.71 38.95 360.48 38.95 348.52 0 332.94 0 332.94 80.95 350.44 80.95 350.44 41.55 350.66 41.55 362.74 80.95 378.21 80.95 378.21 0 378.21 0"/>
  <polygon class="cls-1" points="418.32 0 384 0 384 80.95 418.78 80.95 418.78 65.7 402.63 65.7 402.63 45.72 415.84 45.72 415.84 30.48 402.63 30.48 402.63 15.24 418.32 15.24 418.32 0 418.32 0"/>
  <polygon class="cls-1" points="425.93 10.1 427.54 10.1 427.54 1.38 429.89 1.38 429.89 0.03 423.53 0.03 423.53 1.38 425.93 1.38 425.93 10.1 425.93 10.1"/>
  <polygon class="cls-1" points="431.57 10.1 433.1 10.1 433.1 1.72 433.13 1.72 435.16 10.1 436.51 10.1 438.54 1.72 438.57 1.72 438.57 10.1 440.09 10.1 440.09 0.03 437.64 0.03 435.89 7.49 435.86 7.49 434.08 0.03 431.57 0.03 431.57 10.1 431.57 10.1"/>
</svg>