<?xml version="1.0" encoding="UTF-8"?>
<svg xmlns="http://www.w3.org/2000/svg" width="702" height="81" viewBox="0 0 702 81">
  <defs>
    <style>
      .cls-1 {
        fill: #fff;
        fill-rule: evenodd;
      }
    </style>
  </defs>
  <path class="cls-1" d="M80.278,41.164c-9.141,0-12.626-3.938-12.626-9.7V0.985h7.6V31.518c0,2.4,1.6,3.712,5.027,3.712H105.24c3.428,0,5.026-1.313,5.026-3.712V0.985h7.6V31.463c0,5.763-1.885,9.7-11.025,9.7H80.278Zm156.2,0L198.822,9.889V41.164H192.2V0.985h6.569l34.8,29.851V0.985h6.625V41.164h-3.711Zm39.012,0V6.921H254.416V0.985H303.6V6.921H283.092V41.164h-7.6Zm380.365-1.325V80.015h7.292V39.839h-7.292Zm45.14,0h-9.026L671.912,58.493,692.2,80.015h8.739L681.036,58.493ZM330.21,41.164c-9.14,0-12.625-3.938-12.625-9.7V0.985h7.6V31.518c0,2.4,1.6,3.712,5.026,3.712h24.963c3.426,0,5.028-1.313,5.028-3.712V0.985H367.8V31.463c0,5.763-1.884,9.7-11.022,9.7H330.21ZM537.89,80.015V39.839h41.356v5.934h-33.76V55.818h32.045v5.938H545.486V74.08h33.76v5.936H537.89ZM527.522,52.393V49.541c0-5.767-3.484-9.7-12.624-9.7h-34.16V80.015h7.6V45.773H514.9c3.429,0,5.027,1.311,5.027,3.709v2.968c0,3.766-4.148,3.709-7.576,3.709H497.99l21.429,23.855h9.02l-16.3-18.025C525.4,62.2,527.522,59.926,527.522,52.393ZM442.886,0.985h-6.514L412.611,33.8,388.734,0.985H381.65V41.164h7.024V13.084l20.508,28.08h6.227l20.449-28.136V35.17l7.028-11.554V0.985ZM40.05,1.061H13.582C4.475,1.061,1,4.983,1,10.729v20.7C1,37.174,4.475,41.1,13.582,41.1l23.855-.045,3.614,5.613h7.531L38.058,29.573H30.281l3.49,5.61H13.582c-3.416,0-5.011-1.3-5.011-3.7V10.672c0-2.391,1.6-3.7,5.011-3.7H40.05c3.416,0,5.011,1.3,5.011,3.7V28L50.75,37.4a9.189,9.189,0,0,0,1.882-5.972v-20.7C52.632,4.983,49.159,1.061,40.05,1.061ZM638.435,80.015h8.538L620.508,39.987h-5.521L588.352,80.015h8.424l7.869-12.081h17.491l-3.716-5.906h-9.927l9.284-14.253ZM175.6,41.09h8.537L157.672,1.061H152.15L125.515,41.09h8.424l7.87-12.081H159.3L155.584,23.1h-9.928L154.94,8.849ZM464.333,58.9c2.858-.57,4.741-3.2,4.741-6.676V48.514c0-5.367-3.426-8.676-12.338-8.676H433.9c-2.625,3.97-6.408,9.849-9.893,15.325V80.015h32.846c9.94,0,12.739-4.107,12.739-8.674V65.465C469.59,61.581,467.361,59.7,464.333,58.9ZM431.6,45.773h25.134c3.542,0,4.743.913,4.743,3.138V53.08c0,2.225-1.2,3.137-4.743,3.137H431.6V45.773Zm30.389,24.143c0,3.252-2.113,4.164-5.14,4.164H431.6V62.151h25.249c3.027,0,5.14.914,5.14,3.428v4.336Z"/>
</svg>