<svg height="512pt" viewBox="0 0 512 512" width="512pt" xmlns="http://www.w3.org/2000/svg"><path d="m256 512c-141.160156 0-256-114.839844-256-256s114.839844-256 256-256 256 114.839844 256 256-114.839844 256-256 256zm0-494.933594c-131.746094 0-238.933594 107.1875-238.933594 238.933594s107.1875 238.933594 238.933594 238.933594 238.933594-107.1875 238.933594-238.933594-107.1875-238.933594-238.933594-238.933594zm0 0"/><path d="m366.933594 315.734375h-221.867188c-3.164062 0-6.066406-1.75-7.550781-4.550781-1.484375-2.796875-1.28125-6.195313.503906-8.796875l110.933594-162.132813c3.179687-4.652344 10.902344-4.652344 14.078125 0l110.933594 162.132813c1.785156 2.613281 1.980468 6 .503906 8.796875-1.476562 2.800781-4.371094 4.550781-7.535156 4.550781zm-205.6875-17.066406h189.507812l-94.753906-138.488281zm0 0"/><path d="m34.140625 375.464844c-3.035156 0-5.980469-1.621094-7.515625-4.488282-2.238281-4.136718-.683594-9.316406 3.464844-11.550781l221.867187-119.46875c4.164063-2.226562 9.324219-.675781 11.550781 3.472657 2.238282 4.140624.683594 9.320312-3.464843 11.554687l-221.863281 119.46875c-1.289063.6875-2.671876 1.011719-4.039063 1.011719zm0 0"/><path d="m477.859375 375.464844c-1.367187 0-2.75-.324219-4.039063-1.011719l-221.863281-119.46875c-4.148437-2.242187-5.703125-7.414063-3.464843-11.554687 2.226562-4.15625 7.40625-5.707032 11.550781-3.472657l221.867187 119.46875c4.148438 2.242188 5.703125 7.414063 3.464844 11.550781-1.535156 2.867188-4.480469 4.488282-7.515625 4.488282zm0 0"/><path d="m256 256c-4.710938 0-8.535156-3.8125-8.535156-8.535156v-238.929688c0-4.722656 3.824218-8.535156 8.535156-8.535156s8.535156 3.8125 8.535156 8.535156v238.929688c0 4.722656-3.824218 8.535156-8.535156 8.535156zm0 0"/><path d="m477.191406 375.464844h-442.382812c-3.234375 0-6.1875-1.824219-7.636719-4.71875l7.636719-3.8125-7.722656 3.652344c-1.390626-2.671876-1.425782-6.179688.160156-8.730469l221.5-357.8125c3.117187-5.03125 11.402344-5.03125 14.515625 0l221.5 357.8125c1.554687 2.519531 1.699219 5.65625.375 8.3125-1.449219 2.882812-4.710938 5.296875-7.945313 5.296875zm-427.742187-17.066406h413.101562l-206.550781-333.660157zm0 0"/><path d="m256 512c-2.953125 0-5.699219-1.527344-7.253906-4.042969l-221.5-357.804687c-1.550782-2.515625-1.699219-5.65625-.375-8.3125 1.441406-2.890625 4.703125-5.304688 7.9375-5.304688h442.390625c3.234375 0 6.1875 1.824219 7.640625 4.71875l-7.648438 3.8125 7.722656-3.652344c1.390626 2.671876 1.425782 6.179688-.160156 8.730469l-221.5 357.8125c-1.554687 2.515625-4.300781 4.042969-7.253906 4.042969zm-206.550781-358.398438 206.550781 333.660157 206.550781-333.660157zm0 0"/></svg>